# xmcd CD database file
#
# Track frame offsets:
#	150
#	18460
#	34378
#	44561
#	59389
#	73727
#	89740
#	104413
#	115626
#	133109
#	149387
#	166575
#	182660
#	194431
#	208966
#	224329
#	235972
#	250498
#	262133
#	276456
#
# Disc length: 3867 seconds
#
# Revision: 1
# Processed by: cddbd v1.5.2PL0 Copyright (c) Steve Scherf et al.
# Submitted via: CDex 1.70beta3
#
DISCID=480f1914
DTITLE=Teddy Wilson - With Billie In Mind
DYEAR=1972
DGENRE=Jazz
TTITLE0=What A Little Moonlight Can I Do
TTITLE1=This Year's Kisses
TTITLE2=When You're Smiling
TTITLE3=Easy To Love
TTITLE4=Sugar
TTITLE5=Body And Soul
TTITLE6=If You Are A Mine
TTITLE7=Them There Eyes
TTITLE8=I'll Never Be The Same
TTITLE9=I Wished On The Moon
TTITLE10=Why Was I Born
TTITLE11=I Cried For You
TTITLE12=If Dreams Come True
TTITLE13=Fooling Myself
TTITLE14=Mean To Me
TTITLE15=Nice Work If You Can Get It
TTITLE16=I'll Get By
TTITLE17=Easy Living
TTITLE18=Miss Brown To You
TTITLE19=What A Moon, What A Night, What A Girl
EXTD=YEAR: 1972
EXTT0=
EXTT1=
EXTT2=
EXTT3=
EXTT4=
EXTT5=
EXTT6=
EXTT7=
EXTT8=
EXTT9=
EXTT10=
EXTT11=
EXTT12=
EXTT13=
EXTT14=
EXTT15=
EXTT16=
EXTT17=
EXTT18=
EXTT19=
PLAYORDER=
